<svg width="19" height="19" viewBox="0 0 19 19" fill="none" xmlns="http://www.w3.org/2000/svg">
<path d="M8.48052 1V0.75H8.23052H2.49026C2.01711 0.75 1.60454 0.925021 1.26478 1.26478C0.925021 1.60454 0.75 2.01711 0.75 2.49026V16.5097C0.75 16.9829 0.925021 17.3955 1.26478 17.7352C1.60454 18.075 2.01711 18.25 2.49026 18.25H16.5097C16.9829 18.25 17.3955 18.075 17.7352 17.7352C18.075 17.3955 18.25 16.9829 18.25 16.5097V10.7695V10.5195H18H17.3929H17.1429V10.7695V16.5097C17.1429 16.6525 17.0862 16.794 16.9401 16.9401C16.794 17.0862 16.6525 17.1429 16.5097 17.1429H2.49026C2.34752 17.1429 2.206 17.0862 2.05989 16.9401C1.91379 16.794 1.85714 16.6525 1.85714 16.5097V2.49026C1.85714 2.34752 1.91379 2.206 2.05989 2.05989C2.206 1.91379 2.34752 1.85714 2.49026 1.85714H8.23052H8.48052V1.60714V1ZM6.81186 12.6573L6.9891 12.8345L7.16588 12.6568L17.1429 2.62692V7.62338V7.87338H17.3929H18H18.25V7.62338V1V0.75H18H11.3766H11.1266V1V1.60714V1.85714H11.3766H16.3731L6.34317 11.8341L6.16546 12.0109L6.3427 12.1881L6.81186 12.6573Z" fill="#141317" stroke="#141317" stroke-width="0.5"/>
</svg>
