<svg width="99" height="99" viewBox="0 0 99 99" fill="none" xmlns="http://www.w3.org/2000/svg">
<rect width="99" height="99" fill="#D9D9D9"/>
<path d="M9.19531 74V24.9863H16.749L41.2559 58.7559V24.9863H49.6299V74H42.0762L17.5693 40.333V74H9.19531ZM59.9863 74V24.9863H76.6318C79.0244 24.9863 81.2461 25.3851 83.2969 26.1826C85.2565 26.9574 86.9655 28.0511 88.4238 29.4639C89.791 30.8083 90.8848 32.4717 91.7051 34.4541C92.4798 36.3454 92.8672 38.4189 92.8672 40.6748C92.8672 42.9307 92.4798 45.0042 91.7051 46.8955C90.8848 48.8779 89.791 50.5413 88.4238 51.8857C86.9655 53.2985 85.2565 54.3923 83.2969 55.167C81.2461 55.9645 79.0244 56.3633 76.6318 56.3633H68.3604V74H59.9863ZM68.3604 48.3652H75.5723C78.4889 48.3652 80.6764 47.6702 82.1348 46.2803C83.5931 44.8903 84.3223 43.0218 84.3223 40.6748C84.3223 38.3278 83.5931 36.4593 82.1348 35.0693C80.6764 33.6794 78.4889 32.9844 75.5723 32.9844H68.3604V48.3652Z" fill="black"/>
</svg>
