<svg width="26" height="26" viewBox="0 0 26 26" fill="none" xmlns="http://www.w3.org/2000/svg">
<path d="M1.69393 25.3061L1.8 25.4121L1.90607 25.3061L13.1 14.1121L24.2939 25.3061L24.4 25.4121L24.5061 25.3061L25.3061 24.5061L25.4121 24.4L25.3061 24.2939L14.1121 13.1L25.3061 1.90607L25.4121 1.8L25.3061 1.69393L24.5061 0.893934L24.4 0.787868L24.2939 0.893934L13.1 12.0879L1.90607 0.893934L1.8 0.787868L1.69393 0.893934L0.893934 1.69393L0.787868 1.8L0.893934 1.90607L12.0879 13.1L0.893934 24.2939L0.787868 24.4L0.893934 24.5061L1.69393 25.3061Z" fill="#141317" stroke="#141317" stroke-width="0.5"/>
</svg>
